PathFileType	4	(X/Y/Z)	C:/Users/beibeiliu/ov580/test_trc/User3\sequence.26_training_dense_right.trc
DataRate	CameraRate	NumFrames	NumMarkers	Units	OrigDataRate	OrigDataStartFrame	OrigNumFrames
120	120	24	19	mm	120	167	266
Frame#	Time	ThumbCMC			ThumbMCP			ThumbIP			ThumbTip			IndexMCP			IndexPIP			IndexTip			MiddleMCP			MiddlePIP			MiddleTip			RingMCP			RingPIP			RingTip			PinkyMCP			PinkyPIP			PinkyTip			BackHand1			BackHand2			BackHand3	
		X0	Y0	Z0	X1	Y1	Z1	X2	Y2	Z2	X3	Y3	Z3	X4	Y4	Z4	X5	Y5	Z5	X6	Y6	Z6	X7	Y7	Z7	X8	Y8	Z8	X9	Y9	Z9	X10	Y10	Z10	X11	Y11	Z11	X12	Y12	Z12	X13	Y13	Z13	X14	Y14	Z14	X15	Y15	Z15	X16	Y16	Z16	X17	Y17	Z17	X18	Y18	Z18	
166	1.38333	173.581	-38.3637	14.1631	171.775	-44.5338	-17.1896	181.873	-50.5379	-43.9883	204.888	-55.9342	-53.6258	198.876	-18.4122	-54.6446	199.054	-19.6832	-82.0571	199.096	-19.715	-105.413	219.144	-32.4688	-58.8544	219.415	-49.1976	-81.2481	219.958	-73.2314	-105.956	230.942	-54.1589	-37.6819	223.189	-84.9067	-32.5927	208.02	-94.0684	-6.14975	241.559	-56.2293	-23.8183	230.151	-82.6552	-17.8702	211.264	-83.4061	2.96117	228.88	-15.8675	3.27546	226.888	-18.0987	34.71	195	-10.9871	14.5994	
167	1.39167	167.514	-41.8517	16.0808	168.04	-50.7012	-14.9698	184.781	-57.7716	-45.8223	204.738	-66.8939	-50.6475	192.425	-27.5542	-57.6089	194.314	-32.0935	-79.5694	200.665	-36.4263	-107.809	216.089	-41.9482	-57.4795	218.841	-61.0984	-75.8579	221.208	-89.367	-98.553	229.253	-62.2703	-34.2878	218.127	-93.1562	-27.5491	206.515	-98.6457	1.40474	241.457	-66.1427	-20.0164	226.152	-86.9727	-13.6358	209.933	-86.3578	11.2942	228.215	-20.7503	2.46831	224.892	-17.916	36.0138	194.653	-13.5333	12.3305	
168	1.4	163.472	-43.9071	18.8516	167.365	-56.0579	-12.6154	181.179	-66.6662	-36.4258	202.939	-75.444	-44.8266	190.101	-37.1852	-54.2555	194.871	-45.3862	-81.7018	196.675	-51.4378	-104.539	213.091	-51.2486	-54.222	213.639	-73.3856	-72.2358	214.171	-104.634	-86.3874	226.853	-71.7403	-30.4815	214.623	-101.891	-19.204	197.616	-102.404	8.68613	236.85	-78.0633	-16.544	218.443	-92.9376	-5.99749	204.869	-89.8794	18.9486	227.042	-24.0946	3.3313	221.474	-19.2368	31.2493	193.023	-17.8121	13.6835	
169	1.40833	162.574	-42.8741	20.4909	159.772	-59.7835	-10.9005	174.473	-74.6211	-32.3438	197.715	-88.9346	-42.8828	190.856	-47.3972	-57.3999	187.844	-55.414	-77.3479	188.454	-64.835	-100.581	207.748	-61.5023	-52.5344	204.437	-89.9262	-69.6389	199.803	-123.253	-73.9023	218.305	-79.0584	-27.0328	205.257	-107.234	-13.8001	189.766	-105.098	15.4729	229.644	-85.6678	-12.5136	215.368	-99.5818	0.235019	196.519	-87.255	25.107	226.65	-29.9775	0.690882	217.475	-22.4678	34.4955	190.934	-20.775	12.704	
170	1.41667	162.021	-42.1336	19.5199	152.491	-62.2248	-6.66322	167.46	-82.1365	-30.2781	186.938	-94.4769	-31.1781	182.678	-53.7801	-51.5906	180.606	-65.8656	-72.7147	179.568	-81.952	-99.6692	202.234	-73.3639	-48.3436	191.482	-103.141	-61.0636	183.301	-136.577	-55.9902	207.75	-86.1152	-23.8402	196.9	-110.259	-10.7354	182.85	-108.707	22.6615	220.872	-90.35	-9.08559	201.775	-103.244	8.2783	192.588	-87.954	34.0035	222.986	-38.4879	0.249821	218.757	-24.7968	31.067	191.225	-22.8084	12.8357	
171	1.425	155.73	-38.8741	22.1351	147.735	-59.282	1.42909	158.105	-82.7815	-20.2957	174.568	-99.551	-24.572	171.985	-60.6212	-49.8726	167.719	-75.7149	-69.7963	162.277	-93.0475	-90.0332	188.187	-83.2486	-45.7488	178.24	-112.397	-50.421	163.171	-142.203	-37.6019	200.353	-92.7936	-18.1645	181.068	-114.222	-1.32719	172.562	-108.412	31.6027	209.012	-98.378	-5.62244	193.768	-108.034	11.8294	183.341	-88.7112	38.2049	216.451	-42.4942	0.677358	219.285	-29.9701	27.9815	186.203	-21.434	10.6869	
172	1.43333	156.179	-34.6241	25.9408	140.645	-55.319	7.03745	140.72	-82.3958	-13.8889	159.598	-101.922	-17.9029	159.551	-62.0713	-43.4635	148.5	-79.8052	-63.2641	141.671	-98.9766	-81.557	170.931	-84.8082	-39.7827	153.045	-113.398	-40.7801	140.992	-137.78	-20.7256	182.813	-97.8739	-13.5384	168.89	-115.233	3.99241	157.329	-105.339	34.7801	200.727	-102.195	0.985496	179.351	-109.389	21.5041	172.551	-86.4308	40.3177	211.835	-49.5691	-0.206731	216.898	-33.5845	26.2349	189.388	-24.2253	10.7475	
173	1.44167	156.758	-27.9159	30.0332	136.534	-47.7704	13.3494	128.268	-74.3978	-5.93499	139.841	-100.066	-11.4134	146.965	-63.0415	-40.395	136.535	-78.9075	-54.344	126.031	-98.6861	-69.4915	158.874	-86.7967	-33.2562	135.599	-108.554	-32.5744	116.676	-130.107	-8.54497	169.157	-96.7595	-8.03169	149.085	-109.817	11.421	144.293	-98.9104	43.9408	184.886	-103.807	6.47196	163.193	-106.286	23.5676	158.052	-84.7265	46.386	205.181	-53.6088	3.39711	217.86	-36.521	26.6295	184.321	-22.644	9.01084	
174	1.45	153.784	-20.5718	33.7254	130.498	-41.6896	15.9039	119.402	-63.997	3.71463	121.366	-91.9339	-4.70851	136.089	-59.1558	-34.8696	120.448	-72.389	-47.1687	106.642	-91.5697	-62.6557	145.901	-82.7076	-26.4832	121.986	-100.193	-24.838	93.9924	-118.192	-6.38597	155.022	-94.2209	-3.19698	133.314	-105.085	21.6252	132.479	-94.4632	51.4782	167.627	-101.396	10.5924	149.459	-101.75	30.4542	149.372	-77.8409	50.7516	198.542	-55.6396	2.01139	214.357	-42.0563	27.8998	183.4	-23.3634	12.0151	
175	1.45833	150.651	-16.2861	35.1038	124.55	-34.0889	20.233	109.15	-56.3516	5.72767	111.48	-79.6989	1.96971	127.551	-52.4427	-28.8872	108.962	-64.383	-42.6807	89.4542	-78.4915	-57.1736	130.749	-74.3099	-21.9088	101.811	-92.6418	-19.3353	81.8482	-108.966	-3.16745	139.632	-89.7932	2.20011	119.669	-95.6558	24.9679	119.822	-86.0049	52.0819	150.754	-98.548	15.3366	135.12	-92.5513	35.3196	140.458	-74.9374	57.6388	192.046	-57.4167	5.34566	205.52	-41.4009	28.669	179.981	-23.057	10.2213	
176	1.46667	149.953	-10.4757	37.0252	121.439	-24.6854	22.922	102.15	-47.0647	8.47624	102.224	-70.731	4.18851	119.237	-46.6728	-27.1526	98.3815	-52.2443	-39.7201	81.0558	-62.8486	-51.9558	118.408	-69.3223	-18.8443	90.9647	-80.2505	-14.9674	66.1164	-94.0364	2.22343	125.052	-79.2526	4.49486	107.698	-83.6965	24.5717	109.378	-73.2816	59.1496	139.312	-90.4613	17.2359	125.975	-88.0179	40.52	133.927	-68.2772	60.1556	179.159	-58.0244	4.56459	201.582	-42.5199	28.0856	174.407	-21.0776	12.6868	
177	1.475	148.862	-2.23477	38.0274	116.972	-13.5515	25.1143	101.345	-37.7864	10.0846	88.5831	-58.3966	5.5102	111.321	-33.1234	-26.5253	90.9225	-44.5537	-37.994	73.3582	-51.0147	-49.826	113.386	-58.8741	-16.2559	79.6999	-64.7962	-13.0379	50.4433	-75.6538	3.04986	118.727	-74.2508	7.69071	97.7137	-74.7278	28.6759	98.1616	-61.2292	59.2019	130.016	-84.4033	20.9308	113.546	-75.1164	39.3525	126.462	-53.2073	58.4875	175.092	-52.9455	7.65006	197.051	-44.4864	28.5065	174.14	-16.3256	12.3321	
178	1.48333	153.107	1.219	35.9097	118.516	-5.39787	19.9737	95.2832	-22.121	8.34511	85.6638	-45.9267	4.91958	112.121	-24.8452	-24.717	90.2469	-31.5138	-37.0233	68.5074	-37.3229	-51.1427	106.318	-49.1735	-14.6579	77.077	-51.3224	-13.0426	41.9519	-55.6337	2.26335	106.893	-61.2686	9.41608	89.3068	-61.687	31.1262	89.6916	-47.5987	59.7157	119.682	-72.6922	21.3674	104.452	-61.4528	42.044	119.39	-44.7841	61.6787	165.849	-53.3276	9.27185	189.945	-48.5048	28.4089	171.817	-20.3332	12.5631	
179	1.49167	154.501	6.28565	30.5405	124.347	4.2142	18.2075	101.571	-9.93873	8.52859	88.5282	-33.3185	5.80108	109.424	-21.8278	-29.0516	88.9556	-18.1888	-40.3924	71.0421	-26.5097	-50.5829	103.781	-41.2323	-15.7861	75.1962	-42.4449	-12.8705	42.3851	-39.7512	-2.6449	102.771	-54.5601	10.479	82.1165	-43.1838	29.8095	83.7745	-29.5513	59.2946	108.571	-61.1688	23.5826	98.8499	-48.5693	41.8933	118.872	-32.1237	60.727	161.766	-53.9459	11.4246	185.641	-49.1628	32.4677	173.107	-18.4019	11.3881	
180	1.5	158.211	8.99922	30.3069	127.904	14.1993	16.3646	102.538	-2.23643	2.71032	84.8138	-22.0917	1.06047	116.099	-13.9461	-28.9294	92.1817	-13.4555	-44.9045	73.8949	-12.6456	-59.8955	101.148	-32.3701	-18.3141	73.6641	-27.5248	-17.9992	41.2582	-24.3791	-9.96386	102.365	-40.8099	5.43366	78.8514	-32.3513	28.3414	78.3709	-18.9285	52.5273	108.116	-55.4936	20.4028	95.3885	-38.3036	40.678	116.767	-25.5276	58.1151	157.031	-53.0172	8.06982	184.902	-47.8961	32.3853	175.138	-17.1418	10.5182	
181	1.50833	160.298	13.4689	26.4056	131.434	17.9584	9.90808	107.191	7.33627	-1.77416	91.0712	-14.6612	-4.02068	120.91	-5.4214	-34.9632	98.8028	-4.3193	-51.2094	82.3902	-4.90405	-65.518	107.018	-27.2707	-23.1086	77.4605	-20.1729	-25.4291	44.8751	-9.34374	-21.6877	103.425	-38.6918	2.07564	80.4402	-25.5731	20.4485	78.0838	-6.66456	43.5352	103.985	-48.5424	17.4603	95.8256	-29.4261	34.749	111.706	-16.8659	52.3208	161.011	-44.1573	7.61591	182.203	-43.4862	29.2915	175.781	-14.6447	11.4248	
182	1.51667	165.339	19.5624	25.9114	138.549	22.717	9.1778	111.62	9.84622	-12.6742	96.6973	-11.991	-14.6008	128.63	0.788589	-42.6178	111.355	0.920814	-57.1579	96.0744	-0.00227124	-72.4545	117.106	-19.7153	-30.5737	88.7335	-16.2715	-34.8779	53.4403	-2.1067	-35.0558	111.623	-30.7717	-7.79591	84.0594	-20.3324	9.16665	80.0883	-6.07821	37.4165	107.77	-43.3718	8.13449	98.2482	-24.8332	24.9371	110.765	-11.9268	44.554	164.485	-41.8156	2.23236	184.566	-42.3911	32.3598	183.103	-9.4198	8.58301	
183	1.525	168.185	19.9451	27.8157	143.136	24.3072	4.48767	122.816	16.0548	-18.1546	109.295	-8.23069	-26.5309	146.376	4.88341	-43.3539	129.539	11.1	-63.3553	117.73	11.4085	-82.734	131.593	-16.7974	-39.5393	102.479	-11.4015	-50.1494	68.9068	-4.85469	-50.4492	119.51	-28.4809	-18.8188	93.9324	-19.0342	-4.39587	86.5731	-7.08188	21.4182	122.313	-45.2206	-2.14979	104.331	-28.6989	12.6741	115.566	-10.7098	35.1828	176.794	-36.1182	0.285947	192.457	-36.0891	31.6673	189.322	-1.59055	9.5252	
184	1.53333	168.586	25.6161	25.8701	150.102	24.2665	-0.375439	135.749	15.571	-27.2139	132.5	-8.3934	-37.2221	163.924	18.9738	-49.6268	151.993	20.0991	-73.2583	142.652	18.8208	-93.1271	154.778	-8.00655	-51.774	131.716	-9.44548	-64.6145	94.4616	-8.72782	-74.2202	146.109	-25.1627	-31.5855	114.923	-22.9901	-24.6117	101.055	-20.0441	4.71683	148.07	-41.0604	-18.9229	121.72	-37.7342	-5.7215	121.218	-24.7994	19.9756	194.428	-22.5183	-1.86386	204.961	-22.2951	26.9983	196.649	9.01689	13.7177	
185	1.54167	165.727	21.641	29.7065	148.754	24.443	0.115376	147.109	13.2055	-29.0535	151.104	-8.15514	-46.0974	173.89	27.5184	-50.2466	166.88	30.1282	-71.0716	159.125	27.5434	-99.7736	171.216	4.67345	-56.9549	150.487	-4.63454	-75.1502	122.404	-11.8634	-86.8503	163.886	-22.7407	-41.2487	140.041	-32.1343	-38.037	119.79	-30.7033	-10.118	172.975	-37.1269	-29.0226	143.689	-40.2322	-20.8325	136.388	-34.8927	4.57107	207.975	-9.58775	-4.08993	213.87	-14.5706	32.4058	198.985	19.174	19.8066	
186	1.55	164.254	15.0318	29.951	152.003	17.5532	-3.69848	157.442	9.91173	-34.7759	167.006	-7.03206	-51.7963	179.267	32.5187	-44.9971	173.158	35.4408	-72.0729	170.882	34.8479	-97.5148	185.539	10.1729	-54.6255	169.454	2.53126	-76.933	142.07	-15.2999	-97.5585	183.52	-20.665	-45.4182	159.69	-35.3561	-43.3577	140.724	-40.5099	-16.9568	191.277	-38.0897	-35.3123	165.343	-40.8602	-29.008	152.423	-38.828	-4.76786	217.012	-0.812003	0.806679	222.266	-7.41958	32.4647	199.023	23.4341	17.9093	
187	1.55833	167.73	5.87947	27.1321	160.549	6.86765	-7.79104	162.681	1.60444	-37.793	177.747	-12.3012	-56.735	188.419	26.6335	-46.4153	181.317	33.0777	-75.2889	183.223	31.6891	-97.8224	196.77	6.49237	-56.1489	180.284	-2.92721	-82.9847	162.914	-22.1983	-103.876	196.452	-21.4488	-47.4116	174.889	-39.0095	-46.9713	158.31	-49.4312	-16.532	205.732	-39.6978	-37.091	181.463	-50.2864	-28.1805	169.116	-45.8533	-1.38043	228.308	-1.12029	1.65527	227.746	-5.07342	30.7754	201.118	19.6444	17.918	
188	1.56667	170.885	-2.82036	24.3339	159.087	-2.65177	-10.5136	171.381	-9.30428	-41.5026	186.191	-23.3476	-57.165	190.361	19.3026	-51.0796	187.746	18.7996	-77.6265	189.504	19.1174	-100.049	202.514	-1.27179	-60.1341	196.072	-14.8928	-80.7677	177.516	-35.0816	-107.123	205.726	-27.556	-45.665	187.576	-51.9257	-45.1941	173.039	-59.7863	-13.7299	215.921	-40.9361	-33.6758	191.18	-54.98	-25.6034	181.297	-48.361	3.0673	230.784	-4.87941	3.77619	229.965	-5.3686	30.9739	205.75	12.4085	20.7445	
189	1.575	168.448	-7.25035	19.8959	162.74	-11.5928	-13.8461	173.805	-22.111	-44.2794	193.136	-36.7526	-52.8395	191.415	6.08485	-49.9173	187.835	6.26536	-79.2321	188.224	5.48471	-101.201	206.396	-13.2626	-59.3466	195.91	-28.3273	-83.8243	184.523	-48.3443	-103.616	209.534	-40.2421	-44.5967	191.023	-62.3505	-40.0302	182.079	-68.1001	-8.76695	224.213	-51.8407	-27.4328	196.774	-62.1109	-18.2565	191.67	-53.5592	6.80353	233.68	-8.84446	3.80358	229.717	-8.29933	34.5776	201.27	8.35062	17.7222	
